HIERARCHY
ROOT Hips
{
	OFFSET 0.000000 0.000000 0.000000 
	CHANNELS 6 Xposition Yposition Zposition Zrotation Yrotation Xrotation
	JOINT LeftUpLeg
	{
		OFFSET 1.363060 -1.794630 0.839290 
		CHANNELS 3 Zrotation Yrotation Xrotation
		JOINT LeftLeg
		{
			OFFSET 2.448110 -6.726130 0.000000 
			CHANNELS 3 Zrotation Yrotation Xrotation
			JOINT LeftFoot
			{
				OFFSET 2.562200 -7.039590 0.000000 
				CHANNELS 3 Zrotation Yrotation Xrotation
				JOINT LeftToeBase
				{
					OFFSET 0.157640 -0.433110 2.322550 
					CHANNELS 3 Zrotation Yrotation Xrotation
					End Site
					{
						OFFSET 0.000000 0.000000 0.000000 
					}
				}
			}
		}
	}
	JOINT RightUpLeg
	{
		OFFSET -1.305520 -1.794630 0.839290 
		CHANNELS 3 Zrotation Yrotation Xrotation
		JOINT RightLeg
		{
			OFFSET -2.542530 -6.985550 0.000000 
			CHANNELS 3 Zrotation Yrotation Xrotation
			JOINT RightFoot
			{
				OFFSET -2.568260 -7.056230 0.000000 
				CHANNELS 3 Zrotation Yrotation Xrotation
				JOINT RightToeBase
				{
					OFFSET -0.164730 -0.452590 2.363150 
					CHANNELS 3 Zrotation Yrotation Xrotation
					End Site
					{
						OFFSET 0.000000 0.000000 0.000000 
					}
				}
			}
		}
	}
	JOINT Spine
	{
		OFFSET 0.028270 2.035590 -0.193380 
		CHANNELS 3 Zrotation Yrotation Xrotation
		JOINT Spine1
		{
			OFFSET 0.056720 2.048850 -0.042750 
			CHANNELS 3 Zrotation Yrotation Xrotation
			JOINT Neck1
			{
				OFFSET -0.054170 1.746240 0.172020 
				CHANNELS 3 Zrotation Yrotation Xrotation
				JOINT Head
				{
					OFFSET 0.104070 1.761360 -0.123970 
					CHANNELS 3 Zrotation Yrotation Xrotation
					End Site
					{
						OFFSET 0.000000 0.000000 0.000000 
					}
				}
			}
			JOINT LeftArm
			{
				OFFSET 3.362410 1.200890 -0.311210 
				CHANNELS 3 Zrotation Yrotation Xrotation
				JOINT LeftForeArm
				{
					OFFSET 4.983000 -0.000000 -0.000000 
					CHANNELS 3 Zrotation Yrotation Xrotation
					JOINT LeftHand
					{
						OFFSET 3.483560 -0.000000 -0.000000 
						CHANNELS 3 Zrotation Yrotation Xrotation
						JOINT LeftHandIndex1
						{
							OFFSET 0.715260 -0.000000 -0.000000 
							CHANNELS 3 Zrotation Yrotation Xrotation
							End Site
							{
								OFFSET 0.000000 0.000000 0.000000 
							}
						}
					}
				}
			}
			JOINT RightArm
			{
				OFFSET -3.136600 1.374050 -0.404650 
				CHANNELS 3 Zrotation Yrotation Xrotation
				JOINT RightForeArm
				{
					OFFSET -5.241900 -0.000000 -0.000000 
					CHANNELS 3 Zrotation Yrotation Xrotation
					JOINT RightHand
					{
						OFFSET -3.444170 -0.000000 -0.000000 
						CHANNELS 3 Zrotation Yrotation Xrotation
						JOINT RightHandIndex1
						{
							OFFSET -0.622530 -0.000000 -0.000000 
							CHANNELS 3 Zrotation Yrotation Xrotation
							End Site
							{
								OFFSET 0.000000 0.000000 0.000000 
							}
						}
					}
				}
			}
		}
	}
}
MOTION
Frames: 16
Frame Time: 0.041667
8.504493 15.582158 21.808722 -6.224331 25.067617 9.814702 -7.095069 7.074263 -48.690696 11.780936 18.475885 63.915599 3.035500 -6.300500 -14.188232 0.500700 -4.536500 -12.591000 19.950947 5.384031 -45.715810 -11.430238 -18.187742 63.915265 -3.082579 7.142631 -18.207175 -0.153200 2.522200 -6.951300 2.345130 -2.431976 -3.921650 -5.533281 -1.072602 -0.915061 11.335204 -11.043312 -4.385958 6.066800 -5.123700 -0.788900 -52.685597 -20.313936 40.924634 67.067314 -57.697866 -42.382902 0.665994 -0.807601 -26.954846 -7.125000 0.000000 0.000000 63.446940 21.480585 48.071937 -78.018795 57.233231 -48.072686 0.044925 -0.057485 -5.405238 7.125000 0.000000 0.000000 
8.512650 15.583397 21.812027 -6.200090 25.057866 9.838132 -7.146799 7.080063 -48.672194 11.775210 18.472232 63.901897 3.034264 -6.278052 -14.226988 0.503000 -4.546600 -12.619900 19.908925 5.374901 -45.698467 -11.425747 -18.186865 63.900532 -3.084092 7.119126 -18.249662 -0.155100 2.537400 -6.993500 2.342134 -2.416217 -3.920824 -5.557881 -1.064027 -0.906996 11.327744 -11.048172 -4.423016 6.063300 -5.125700 -0.805100 -52.734214 -20.320820 41.009685 67.032776 -57.696080 -42.342051 0.665974 -0.804490 -26.944798 -7.125000 0.000000 0.000000 63.486138 21.442779 47.993093 -78.015941 57.235623 -48.076934 0.045288 -0.053464 -5.403498 7.125000 0.000000 0.000000 
8.521117 15.585152 21.814711 -6.179160 25.038545 9.866266 -7.197261 7.085821 -48.657148 11.767468 18.467750 63.882305 3.031503 -6.250642 -14.261910 0.504800 -4.554600 -12.642600 19.867855 5.371738 -45.683760 -11.418401 -18.184739 63.876719 -3.085469 7.101720 -18.281446 -0.156100 2.546100 -7.017600 2.339535 -2.397187 -3.918637 -5.581709 -1.053586 -0.893931 11.318965 -11.052443 -4.466085 6.059900 -5.127200 -0.823500 -52.784657 -20.338003 41.089563 66.997330 -57.693836 -42.300199 0.665800 -0.801219 -26.931150 -7.125000 0.000000 0.000000 63.518894 21.413819 47.912426 -78.005848 57.237048 -48.075224 0.045700 -0.049034 -5.405401 7.125000 0.000000 0.000000 
8.529790 15.587630 21.817086 -6.163711 25.012492 9.896440 -7.243855 7.093239 -48.643162 11.757711 18.462649 63.856474 3.027852 -6.221920 -14.291449 0.506400 -4.561800 -12.662800 19.830933 5.369956 -45.668838 -11.407550 -18.181062 63.842694 -3.087144 7.092436 -18.302000 -0.156400 2.548000 -7.022900 2.338028 -2.376021 -3.915312 -5.604545 -1.041621 -0.875561 11.302763 -11.057266 -4.509182 6.053200 -5.128600 -0.841500 -52.841075 -20.360080 41.164727 66.964499 -57.692220 -42.260921 0.665678 -0.797726 -26.908376 -7.125000 0.000000 0.000000 63.541417 21.395180 47.833101 -77.983761 57.237332 -48.062822 0.046130 -0.044021 -5.404213 7.125000 0.000000 0.000000 
8.538773 15.590728 21.818738 -6.151743 24.978399 9.928349 -7.288737 7.104020 -48.629737 11.746127 18.456707 63.825218 3.024447 -6.196601 -14.313691 0.506400 -4.561600 -12.662200 19.795637 5.370284 -45.653894 -11.393687 -18.175968 63.799414 -3.089063 7.091373 -18.310749 -0.156300 2.547300 -7.020900 2.337467 -2.354354 -3.912081 -5.625322 -1.029478 -0.859260 11.281172 -11.055857 -4.548990 6.044600 -5.127000 -0.859100 -52.902713 -20.379626 41.233921 66.932229 -57.690766 -42.222741 0.665697 -0.794193 -26.878302 -7.125000 0.000000 0.000000 63.550989 21.387794 47.763886 -77.952919 57.236081 -48.041784 0.046609 -0.038146 -5.400992 7.125000 0.000000 0.000000 
8.548272 15.594651 21.819770 -6.143742 24.940375 9.962053 -7.331658 7.115142 -48.618468 11.733186 18.450242 63.789578 3.020835 -6.173096 -14.329278 0.505400 -4.557400 -12.650300 19.762292 5.367504 -45.641537 -11.377009 -18.169633 63.747457 -3.091338 7.101305 -18.304176 -0.155800 2.543100 -7.009100 2.338463 -2.333494 -3.910022 -5.643114 -1.018008 -0.849741 11.254446 -11.051199 -4.588767 6.035600 -5.124100 -0.878800 -52.969436 -20.399796 41.302538 66.890739 -57.687368 -42.176456 0.665723 -0.790501 -26.846623 -7.125000 0.000000 0.000000 63.547569 21.388447 47.708419 -77.908101 57.233077 -48.006980 0.046971 -0.031340 -5.386908 7.125000 0.000000 0.000000 
8.557874 15.599091 21.819874 -6.136020 24.896563 9.999622 -7.375809 7.125877 -48.611929 11.719871 18.443636 63.753221 3.017481 -6.153414 -14.338974 0.503100 -4.546900 -12.620600 19.726662 5.365127 -45.634979 -11.358946 -18.162689 63.690921 -3.093674 7.122119 -18.281620 -0.155100 2.537700 -6.994100 2.340677 -2.314108 -3.910347 -5.656249 -1.007893 -0.852799 11.227730 -11.043461 -4.628885 6.028900 -5.120000 -0.901000 -53.035628 -20.416345 41.372580 66.833458 -57.680435 -42.116731 0.665590 -0.787047 -26.817502 -7.125000 0.000000 0.000000 63.524975 21.396877 47.674147 -77.847723 57.227712 -47.956230 0.047139 -0.023157 -5.364584 7.125000 0.000000 0.000000 
8.567580 15.603737 21.819151 -6.134923 24.848849 10.036452 -7.412961 7.134849 -48.612195 11.707978 18.437841 63.720737 3.013473 -6.134751 -14.341072 0.500000 -4.533200 -12.581900 19.695461 5.368166 -45.634585 -11.340736 -18.155459 63.634060 -3.095214 7.149550 -18.243338 -0.154600 2.533600 -6.982700 2.345339 -2.296191 -3.913137 -5.661371 -0.999410 -0.871146 11.200423 -11.029985 -4.677173 6.024700 -5.113700 -0.930300 -53.098531 -20.433396 41.445309 66.747429 -57.667111 -42.031997 0.665253 -0.784378 -26.789168 -7.125000 0.000000 0.000000 63.476030 21.408987 47.667394 -77.766153 57.219938 -47.884397 0.046935 -0.013400 -5.331282 7.125000 0.000000 0.000000 
8.576872 15.608384 21.817086 -6.139390 24.800361 10.071381 -7.441872 7.136110 -48.620707 11.699414 18.433783 63.698388 3.008240 -6.115019 -14.336022 0.496600 -4.517800 -12.538300 19.666798 5.378498 -45.643102 -11.324620 -18.148826 63.583739 -3.095493 7.182196 -18.188904 -0.154100 2.529800 -6.972300 2.352278 -2.285006 -3.918373 -5.658658 -0.995479 -0.908902 11.176599 -11.000868 -4.750196 6.025000 -5.100800 -0.977600 -53.135820 -20.460430 41.512658 66.599771 -57.639477 -41.895549 0.664733 -0.783862 -26.759713 -7.125000 0.000000 0.000000 63.393689 21.434691 47.696485 -77.646023 57.207778 -47.774679 0.046156 -0.000890 -5.284105 7.125000 0.000000 0.000000 
8.585855 15.612514 21.813369 -6.151525 24.752561 10.103792 -7.459911 7.124726 -48.643237 11.697125 18.432956 63.695614 3.000006 -6.088841 -14.323608 0.493700 -4.505100 -12.502300 19.640595 5.401565 -45.665825 -11.313171 -18.144018 63.547919 -3.093999 7.221172 -18.114267 -0.153300 2.522900 -6.953200 2.361310 -2.282322 -3.924585 -5.650331 -0.996908 -0.963255 11.156724 -10.949826 -4.860446 6.028600 -5.077800 -1.047000 -53.126876 -20.518995 41.555681 66.360218 -57.589227 -41.683249 0.664116 -0.787266 -26.714996 -7.125000 0.000000 0.000000 63.256033 21.489851 47.757819 -77.477139 57.189021 -47.618595 0.044474 0.017005 -5.225480 7.125000 0.000000 0.000000 
8.594012 15.615818 21.807380 -6.169236 24.712249 10.130386 -7.466147 7.091576 -48.681414 11.704095 18.436745 63.722567 2.986029 -6.047113 -14.302246 0.493700 -4.504800 -12.501500 19.613498 5.439471 -45.703816 -11.309441 -18.142383 63.536023 -3.089394 7.260771 -18.019081 -0.152500 2.516000 -6.934000 2.372467 -2.297595 -3.929945 -5.635654 -1.008437 -1.032777 11.140901 -10.862980 -5.024682 6.034400 -5.038600 -1.150800 -53.041285 -20.626625 41.543668 65.991339 -57.505976 -41.366983 0.663321 -0.797121 -26.645596 -7.125000 0.000000 0.000000 63.044612 21.595708 47.857493 -77.266563 57.162215 -47.421387 0.041781 0.043846 -5.167763 7.125000 0.000000 0.000000 
8.601033 15.617883 21.798707 -6.197561 24.681844 10.145695 -7.453436 7.034566 -48.739983 11.724833 18.447491 63.792623 2.965929 -5.992409 -14.264868 0.495000 -4.510800 -12.518300 19.587894 5.507058 -45.756579 -11.316922 -18.145513 63.559718 -3.079298 7.289043 -17.906945 -0.151700 2.509900 -6.917000 2.385628 -2.330598 -3.929847 -5.616534 -1.029118 -1.103503 11.127498 -10.742264 -5.242527 6.038100 -4.983300 -1.283700 -52.848017 -20.821704 41.443211 65.478478 -57.382129 -40.936922 0.662345 -0.815043 -26.575583 -7.125000 0.000000 0.000000 62.728734 21.777423 47.976805 -77.038656 57.126694 -47.206986 0.037560 0.084155 -5.127297 7.125000 0.000000 0.000000 
8.606609 15.618296 21.786420 -6.239212 24.662620 10.144502 -7.418576 6.950255 -48.825547 11.763934 18.467475 63.920394 2.935891 -5.912779 -14.206215 0.499500 -4.531100 -12.575700 19.563541 5.612154 -45.827139 -11.339680 -18.154913 63.631977 -3.061956 7.300787 -17.772840 -0.151500 2.508100 -6.912000 2.400101 -2.384954 -3.921392 -5.595756 -1.060148 -1.169630 11.116626 -10.580635 -5.507408 6.039600 -4.908200 -1.442400 -52.507446 -21.133068 41.215452 64.821425 -57.211958 -40.395851 0.660947 -0.841373 -26.571041 -7.125000 0.000000 0.000000 62.275330 22.063745 48.103198 -76.840158 57.082892 -47.018851 0.031425 0.142364 -5.141657 7.125000 0.000000 0.000000 
8.610429 15.616231 21.769384 -6.297863 24.661277 10.127574 -7.359559 6.831340 -48.952664 11.827188 18.498943 64.123657 2.894207 -5.804069 -14.124256 0.506800 -4.563600 -12.667800 19.540558 5.758413 -45.929812 -11.383226 -18.173534 63.769476 -3.035413 7.289953 -17.614537 -0.152500 2.516300 -6.935000 2.414568 -2.463590 -3.902654 -5.583408 -1.102601 -1.225477 11.098275 -10.380252 -5.808413 6.032100 -4.814400 -1.620100 -51.976307 -21.583898 40.831940 64.049718 -56.995218 -39.770201 0.659204 -0.873879 -26.719909 -7.125000 0.000000 0.000000 61.655802 22.473844 48.218416 -76.738057 57.033247 -46.919872 0.022311 0.220167 -5.249437 7.125000 0.000000 0.000000 
8.612391 15.611171 21.746462 -6.369397 24.662672 10.101003 -7.284577 6.685966 -49.141588 11.919552 18.544184 64.417861 2.838915 -5.660739 -14.016068 0.515400 -4.601600 -12.775700 19.509183 5.966913 -46.079017 -11.453383 -18.203905 63.990906 -2.995794 7.239803 -17.429549 -0.157100 2.554300 -7.040100 2.426051 -2.558793 -3.872154 -5.584931 -1.151972 -1.267349 11.054075 -10.153039 -6.116916 6.004200 -4.706900 -1.796800 -51.217035 -22.182644 40.264167 63.235601 -56.741572 -39.121055 0.657185 -0.908313 -27.089481 -7.125000 0.000000 0.000000 60.832795 23.021777 48.296052 -76.813840 56.980630 -46.987801 0.008791 0.314707 -5.503680 7.125000 0.000000 0.000000 
8.611874 15.601775 21.716519 -6.454723 24.659007 10.074486 -7.194862 6.515216 -49.416094 12.045142 18.604658 64.814505 2.770916 -5.485094 -13.887695 0.523000 -4.634800 -12.869700 19.466661 6.250089 -46.300489 -11.557169 -18.249066 64.317797 -2.938876 7.127124 -17.224761 -0.169600 2.652700 -7.313300 2.432857 -2.665832 -3.829604 -5.604964 -1.206093 -1.298163 10.980281 -9.894536 -6.451894 5.956300 -4.583400 -1.982200 -50.195055 -22.931275 39.488515 62.445186 -56.461535 -38.501932 0.654691 -0.938552 -27.706693 -7.125000 0.000000 0.000000 59.782579 23.709815 48.314169 -77.142697 56.927410 -47.293930 -0.009912 0.417152 -5.921251 7.125000 0.000000 0.000000 
